<svg width="311" height="247" viewBox="0 0 311 247" fill="none" xmlns="http://www.w3.org/2000/svg">
<path d="M16 45H295L274.523 247H36.4771L16 45Z" fill="#596163"/>
<path fill-rule="evenodd" clip-rule="evenodd" d="M36.4771 247H247.523L268 45H16L36.4771 247Z" fill="#5E686A"/>
<path d="M0 10.9787C0 4.91534 4.91534 0 10.9787 0H300.021C306.085 0 311 4.91534 311 10.9787V34.0213C311 40.0847 306.085 45 300.021 45H10.9787C4.91535 45 0 40.0847 0 34.0213V10.9787Z" fill="#697173"/>
<path fill-rule="evenodd" clip-rule="evenodd" d="M10.9787 45H276.021C282.085 45 287 40.0847 287 34.0213V10.9787C287 4.91534 282.085 0 276.021 0H10.9787C4.91534 0 0 4.91534 0 10.9787V34.0213C0 40.0847 4.91535 45 10.9787 45Z" fill="#767F81"/>
</svg>
