<svg width="105" height="86" viewBox="0 0 105 86" fill="none" xmlns="http://www.w3.org/2000/svg">
<path fill-rule="evenodd" clip-rule="evenodd" d="M53.6238 57.2131C48.1723 43.877 41.8774 31.8172 29.7466 24.0454C23.0179 19.7329 13.8771 17.8939 7.12748 22.1739C6.367 22.6565 5.62498 23.2381 5.2385 24.0532C4.57392 25.4556 5.17646 27.1921 6.25742 28.3077C7.33725 29.4216 8.80424 30.0565 10.219 30.6957C25.9426 37.7732 41.7745 47.4498 53.0314 60.511L53.6238 57.2131Z" fill="#54966E"/>
<path fill-rule="evenodd" clip-rule="evenodd" d="M51.8876 65.2037C52.467 64.2622 51.8951 62.5592 52.5248 61.6628C64.457 44.6773 85.0482 35.4408 99.7301 20.5003C102.522 17.6605 105.254 13.4843 103.338 9.99482C101.458 6.57271 96.5546 6.55593 92.7753 7.5314C80.5192 10.7007 70.1942 19.4398 63.2333 30.0153C57.4424 38.8137 53.7866 48.8249 51.2743 59.0874C50.7676 61.1573 51.6038 62.981 51.182 65.0634L51.8876 65.2037Z" fill="#54966E"/>
<path d="M54.6149 54.8109C52.4542 57.071 48.9566 66.3026 52.2522 85.1487" stroke="#54966E" stroke-width="2.87774"/>
</svg>
