<svg width="289" height="625" viewBox="0 0 289 625" fill="none" xmlns="http://www.w3.org/2000/svg">
<path d="M214.574 0C170.046 0 125.524 0 81.0077 0C72.8998 62.5645 64.7919 125.129 56.6839 187.693C101.057 187.693 145.436 187.687 189.822 187.674C198.072 125.11 206.323 62.5516 214.574 0Z" fill="#F1F3F6"/>
<path d="M377 0C332.484 0 287.968 0 243.452 0C235.177 62.5516 226.896 125.11 218.61 187.674C263.007 187.674 307.392 187.674 351.765 187.674C360.171 125.11 368.583 62.5516 377 0Z" fill="#F1F3F6"/>
<path d="M347.586 218.634C303.237 218.634 258.882 218.634 214.52 218.634C206.246 281.198 197.965 343.763 189.679 406.327C233.897 406.327 278.122 406.327 322.352 406.327C330.758 343.763 339.169 281.198 347.586 218.634Z" fill="#F1F3F6"/>
<path d="M185.589 437.287C229.772 437.287 273.966 437.287 318.173 437.287C309.767 499.852 301.356 562.416 292.938 624.981C248.875 624.981 204.817 624.981 160.765 624.981C169.04 562.416 177.314 499.852 185.589 437.287Z" fill="#F1F3F6"/>
<path d="M52.6657 218.653C97.0151 218.653 141.376 218.647 185.75 218.634C177.499 281.198 169.254 343.763 161.015 406.327C116.797 406.34 72.5724 406.347 28.342 406.347C36.4499 343.782 44.5578 281.218 52.6657 218.653Z" fill="#F1F3F6"/>
<path d="M156.926 437.287C112.743 437.3 68.5422 437.307 24.3237 437.307C16.2158 499.871 8.10791 562.435 0 625C44.0637 624.987 88.1214 624.981 132.173 624.981C140.424 562.416 148.675 499.852 156.926 437.287Z" fill="#F1F3F6"/>
</svg>
