<svg width="63" height="93" viewBox="0 0 63 93" fill="none" xmlns="http://www.w3.org/2000/svg">
<path d="M28.7508 60V87.328H25.7428V74.016H21.0388V86.848H18.0308V60.16H21.0388V71.008H25.7428V60H28.7508ZM11.5668 60.8C11.5668 65.0453 11.3641 68.6827 10.9588 71.712L17.5828 83.872L14.9268 85.28L10.1588 76.224C9.47608 79.04 8.51608 81.2267 7.27875 82.784C6.06275 84.3413 4.53742 85.312 2.70275 85.696V82.496C4.77208 81.8133 6.25475 79.6267 7.15075 75.936C8.04675 72.224 8.50542 67.136 8.52675 60.672L11.5668 60.8ZM60.556 83.104V86.016H33.26V83.104H45.228V77.952H35.084V68.096H55.628V63.808H35.084V60.992H58.764V70.816H38.252V75.136H59.18V77.952H48.46V83.104H60.556Z" fill="#333537"/>
<path d="M37.1724 4.29131C37.6867 5.81918 38.4588 8.62385 42.517 13.1736C42.5602 13.2221 44.1468 14.8026 44.334 15.0017C47.2297 18.0821 49 22.2068 49 26.7394C49 29.0273 48.5489 31.2113 47.7298 33.2095C46.7944 35.7799 44.3023 37.6183 41.375 37.6183C40.8868 37.6183 40.4106 37.5672 39.9518 37.47C35.1822 36.6265 31.8151 32.6766 29.8933 29.1189C29.4169 28.2367 28.1277 28.3861 28.1336 29.3886C28.1597 33.8356 28.8411 38.0262 31.5911 42.8212C31.9621 43.468 31.5363 43.9546 30.8684 43.9546C21.2034 43.9546 14 36.2749 14 26.7394C14 26.1998 14.0251 25.666 14.0742 25.1391C15.0165 13.4709 24.8088 4.26307 36.8265 4.05134C36.9823 4.0478 37.1227 4.14362 37.1724 4.29131Z" fill="#40B08F"/>
</svg>
