<svg width="32" height="32" viewBox="0 0 32 32" fill="#000" xmlns="http://www.w3.org/2000/svg">
<path d="M5.72404 12.5502L15.0574 3.5935C15.3074 3.35363 15.6465 3.21887 16 3.21887C16.3536 3.21887 16.6927 3.35363 16.9427 3.5935L26.276 12.5502C26.5261 12.7901 26.6666 13.1155 26.6667 13.4548V25.7204C26.6667 26.0597 26.5262 26.3852 26.2762 26.6252C26.0261 26.8651 25.687 26.9999 25.3334 26.9999H18.6667V18.0432H13.3334V26.9999H6.66671C6.31309 26.9999 5.97395 26.8651 5.7239 26.6252C5.47385 26.3852 5.33337 26.0597 5.33337 25.7204V13.4548C5.33345 13.1155 5.47398 12.7901 5.72404 12.5502Z" fill="#D5DAE3"/>
</svg>
