<svg width="12" height="13" viewBox="0 0 12 13" fill="none" xmlns="http://www.w3.org/2000/svg">
<path d="M5.99997 0.5C4.8065 0.5 3.66191 0.974106 2.81799 1.81802C1.97408 2.66193 1.49997 3.80653 1.49997 5V7.401L0.535973 9.815C0.505779 9.89081 0.494601 9.97286 0.503412 10.054C0.512222 10.1351 0.540755 10.2128 0.58652 10.2804C0.632285 10.348 0.69389 10.4033 0.765959 10.4416C0.838028 10.4799 0.91837 10.4999 0.999973 10.5H11C11.0816 10.4999 11.1619 10.4799 11.234 10.4416C11.3061 10.4033 11.3677 10.348 11.4134 10.2804C11.4592 10.2128 11.4877 10.1351 11.4965 10.054C11.5053 9.97286 11.4942 9.89081 11.464 9.815L10.5 7.4V5C10.5 3.80653 10.0259 2.66193 9.18195 1.81802C8.33804 0.974106 7.19345 0.5 5.99997 0.5ZM5.99997 13C5.55649 13.0001 5.12556 12.8528 4.77492 12.5813C4.42428 12.3098 4.17384 11.9294 4.06297 11.5H7.93697C7.8261 11.9294 7.57566 12.3098 7.22502 12.5813C6.87439 12.8528 6.44345 13.0001 5.99997 13V13Z" fill="#4E5054"/>
</svg>
