<svg width="18" height="18" viewBox="0 0 24 24" fill="none" xmlns="http://www.w3.org/2000/svg">
<circle cx="12" cy="12" r="12" fill="#40B08F"/>
<path d="M12 7.92857C11.5698 7.92857 11.2093 7.79167 10.9186 7.51786C10.6395 7.23214 10.5 6.88095 10.5 6.46429C10.5 6.04762 10.6395 5.70238 10.9186 5.42857C11.2093 5.14286 11.5698 5 12 5C12.4302 5 12.7849 5.14286 13.064 5.42857C13.3547 5.70238 13.5 6.04762 13.5 6.46429C13.5 6.88095 13.3547 7.23214 13.064 7.51786C12.7849 7.79167 12.4302 7.92857 12 7.92857ZM13.2035 10.1071V19H10.7616V10.1071H13.2035Z" fill="white"/>
</svg>
