<svg width="135" height="135" viewBox="0 0 135 135" fill="none" xmlns="http://www.w3.org/2000/svg">
<circle cx="67.5" cy="67.5" r="67.5" fill="#EAF3F7" fill-opacity="0.6"/>
<rect x="103.179" y="31.5" width="5" height="56" rx="2.5" transform="rotate(28.4513 103.179 31.5)" fill="#9F9F9F"/>
<circle cx="54.5" cy="70.5" r="10" fill="#40B08F"/>
<path fill-rule="evenodd" clip-rule="evenodd" d="M30.8571 66.5C29.5553 66.5 28.5 67.5553 28.5 68.8571C28.5 70.159 29.5553 71.2143 30.8571 71.2143H31.8543C29.7086 75.4653 28.5 80.2701 28.5 85.3571C28.5 102.715 42.5711 116.786 59.9286 116.786H74.0714C91.4289 116.786 105.5 102.715 105.5 85.3571C105.5 80.2701 104.291 75.4653 102.146 71.2143H103.143C104.445 71.2143 105.5 70.159 105.5 68.8571C105.5 67.5553 104.445 66.5 103.143 66.5H30.8571Z" fill="#474F54"/>
<path fill-rule="evenodd" clip-rule="evenodd" d="M30.8571 66.5C29.5553 66.5 28.5 67.5553 28.5 68.8571C28.5 70.159 29.5553 71.2143 30.8571 71.2143H31.8543C29.7086 75.4653 28.5 80.2701 28.5 85.3571C28.5 102.715 42.5711 116.786 59.9286 116.786H61.0714C78.4289 116.786 92.5 102.715 92.5 85.3571C92.5 80.2701 91.2914 75.4653 89.1457 71.2143H90.1429C91.4447 71.2143 92.5 70.159 92.5 68.8571C92.5 67.5553 91.4447 66.5 90.1429 66.5H30.8571Z" fill="#515F68"/>
<circle cx="55" cy="38" r="5.5" fill="#40B08F"/>
<path fill-rule="evenodd" clip-rule="evenodd" d="M76.5 54.5C78.7091 54.5 80.5 52.7091 80.5 50.5C80.5 48.2909 78.7091 46.5 76.5 46.5C74.2909 46.5 72.5 48.2909 72.5 50.5C72.5 51.0534 72.1343 51.5894 71.6665 51.885C70.9655 52.3279 70.5 53.1096 70.5 54C70.5 55.3807 71.6193 56.5 73 56.5C73.8904 56.5 74.6721 56.0345 75.115 55.3335C75.4106 54.8657 75.9466 54.5 76.5 54.5Z" fill="#40B08F"/>
</svg>
