<svg width="259" height="621" viewBox="0 0 259 621" fill="none" xmlns="http://www.w3.org/2000/svg">
<rect x="-49.4272" y="0.664154" width="307.855" height="8.10144" rx="2" fill="#F1F3F6"/>
<rect x="-49.4274" y="34.6902" width="200.916" height="8.10144" rx="2" fill="#F1F3F6"/>
<rect x="-49.4274" y="68.7162" width="256.006" height="8.10144" rx="2" fill="#F1F3F6"/>
<rect x="-49.4274" y="102.742" width="103.698" height="8.10144" rx="2" fill="#F1F3F6"/>
<rect x="-49.4274" y="136.768" width="307.855" height="8.10144" rx="2" fill="#F1F3F6"/>
<rect x="-49.4274" y="170.794" width="307.855" height="8.10144" rx="2" fill="#F1F3F6"/>
<rect x="-49.4274" y="204.82" width="307.855" height="8.10144" rx="2" fill="#F1F3F6"/>
<rect x="-49.4274" y="238.846" width="307.855" height="8.10144" rx="2" fill="#F1F3F6"/>
<rect x="-49.4274" y="272.873" width="307.855" height="8.10144" rx="2" fill="#F1F3F6"/>
<rect x="-49.4274" y="306.899" width="181.472" height="8.10144" rx="2" fill="#F1F3F6"/>
<rect opacity="0.7" x="-49.4274" y="340.925" width="278.69" height="8.10144" rx="2" fill="#F1F3F6"/>
<rect opacity="0.6" x="-49.4274" y="374.951" width="79.3941" height="8.10144" rx="2" fill="#F1F3F6"/>
<rect x="-49.4272" y="408.977" width="307.855" height="8.10144" rx="2" fill="#FAFAFA"/>
<rect x="-49.4272" y="443.003" width="307.855" height="8.10144" rx="2" fill="#FAFAFA"/>
<rect x="-49.4272" y="477.029" width="181.472" height="8.10144" rx="2" fill="#FAFAFA"/>
<rect x="-49.4272" y="511.055" width="278.69" height="8.10144" rx="2" fill="#FAFAFA" fill-opacity="0.6"/>
<rect x="-49.4272" y="545.081" width="307.855" height="8.10144" rx="2" fill="#FAFAFA" fill-opacity="0.6"/>
<rect x="-49.4272" y="579.107" width="307.855" height="8.10144" rx="2" fill="#FAFAFA" fill-opacity="0.6"/>
<rect x="-49.4272" y="613.133" width="181.472" height="8.10144" rx="2" fill="#FAFAFA" fill-opacity="0.6"/>
</svg>
