<svg width="16" height="17" viewBox="0 0 16 17" fill="none" xmlns="http://www.w3.org/2000/svg">
<path d="M13.5 4.5H11.5V3.25C11.5 2.69844 11.0516 2.25 10.5 2.25H5.5C4.94844 2.25 4.5 2.69844 4.5 3.25V4.5H2.5C2.22344 4.5 2 4.72344 2 5V5.5C2 5.56875 2.05625 5.625 2.125 5.625H3.06875L3.45469 13.7969C3.47969 14.3297 3.92031 14.75 4.45312 14.75H11.5469C12.0813 14.75 12.5203 14.3313 12.5453 13.7969L12.9312 5.625H13.875C13.9438 5.625 14 5.56875 14 5.5V5C14 4.72344 13.7766 4.5 13.5 4.5ZM10.375 4.5H5.625V3.375H10.375V4.5Z" fill="#4E5054"/>
</svg>
