<svg width="16" height="16" viewBox="0 0 16 16" fill="none" xmlns="http://www.w3.org/2000/svg">
<circle cx="8" cy="8" r="8" fill="#C7CCD5"/>
<path d="M8.12163 3.43994C8.99203 3.43994 9.6875 3.67887 10.208 4.15674C10.7371 4.63461 11.0016 5.28741 11.0016 6.11514C11.0016 6.97701 10.7286 7.62554 10.1824 8.06074C9.6363 8.49594 8.91096 8.71354 8.00643 8.71354L7.95523 9.72474H6.68803L6.62403 7.71514H7.04643C7.87416 7.71514 8.50563 7.60421 8.94083 7.38234C9.38456 7.16047 9.60643 6.73807 9.60643 6.11514C9.60643 5.66287 9.47416 5.30874 9.20963 5.05274C8.95363 4.79674 8.59523 4.66874 8.13443 4.66874C7.67363 4.66874 7.31096 4.79247 7.04643 5.03994C6.7819 5.28741 6.64963 5.63301 6.64963 6.07674H5.28003C5.28003 5.56474 5.39523 5.10821 5.62563 4.70714C5.85603 4.30607 6.18456 3.99461 6.61123 3.77274C7.04643 3.55087 7.5499 3.43994 8.12163 3.43994ZM7.30243 12.5535C7.0379 12.5535 6.81603 12.4639 6.63683 12.2847C6.45763 12.1055 6.36803 11.8837 6.36803 11.6191C6.36803 11.3546 6.45763 11.1327 6.63683 10.9535C6.81603 10.7743 7.0379 10.6847 7.30243 10.6847C7.55843 10.6847 7.77603 10.7743 7.95523 10.9535C8.13443 11.1327 8.22403 11.3546 8.22403 11.6191C8.22403 11.8837 8.13443 12.1055 7.95523 12.2847C7.77603 12.4639 7.55843 12.5535 7.30243 12.5535Z" fill="white"/>
</svg>
