<svg width="52" height="52" viewBox="0 0 52 52" fill="none" xmlns="http://www.w3.org/2000/svg">
<g clip-path="url(#clip0_1001_665)">
<path d="M19.846 36.6506C8.03 57.1166 -9.93523 26 13.6968 26C-9.93523 26 8.0299 -5.11658 19.846 15.3494C8.03 -5.11648 43.9602 -5.11648 32.1442 15.3494C43.9602 -5.11658 61.9255 26 38.2935 26C61.9255 26 43.9602 57.1166 32.1442 36.6506C43.9602 57.1166 8.03 57.1166 19.846 36.6506Z" fill="#D5DAE3"/>
<path d="M38.2934 25.985L26.3091 25.8238L26.3151 25.8138L26.3055 25.814L32.1443 15.3494C43.9603 -5.11648 8.03006 -5.11648 19.8461 15.3494L25.6858 25.8156L25.6745 25.8155L25.6805 25.8254L13.6971 26.0409C-9.93475 26.1193 8.13345 57.176 19.8814 36.6711L25.9905 26.3618L25.9952 26.3702L26.0007 26.3603L32.1573 36.6432C43.998 57.0946 61.9253 25.9563 38.2934 25.985Z" fill="#C7CCD5"/>
<path d="M26.0139 32.208C29.4426 32.208 32.2221 29.4284 32.2221 25.9997C32.2221 22.571 29.4426 19.7915 26.0139 19.7915C22.5852 19.7915 19.8057 22.571 19.8057 25.9997C19.8057 29.4284 22.5852 32.208 26.0139 32.208Z" fill="#EBEEF2"/>
</g>
<defs>
<clipPath id="clip0_1001_665">
<rect width="52" height="52" fill="white"/>
</clipPath>
</defs>
</svg>
