<svg width="16" height="16" viewBox="0 0 16 16" fill="none" xmlns="http://www.w3.org/2000/svg">
<circle cx="8" cy="8" r="8" fill="#C7CCD5"/>
<path d="M8.1216 3.43994C8.992 3.43994 9.68747 3.67887 10.208 4.15674C10.7371 4.63461 11.0016 5.28741 11.0016 6.11514C11.0016 6.97701 10.7285 7.62554 10.1824 8.06074C9.63627 8.49594 8.91093 8.71354 8.0064 8.71354L7.9552 9.72474H6.688L6.624 7.71514H7.0464C7.87413 7.71514 8.5056 7.60421 8.9408 7.38234C9.38453 7.16048 9.6064 6.73807 9.6064 6.11514C9.6064 5.66287 9.47413 5.30874 9.2096 5.05274C8.9536 4.79674 8.5952 4.66874 8.1344 4.66874C7.6736 4.66874 7.31093 4.79247 7.0464 5.03994C6.78187 5.28741 6.6496 5.63301 6.6496 6.07674H5.28C5.28 5.56474 5.3952 5.10821 5.6256 4.70714C5.856 4.30607 6.18453 3.99461 6.6112 3.77274C7.0464 3.55087 7.54987 3.43994 8.1216 3.43994ZM7.3024 12.5535C7.03787 12.5535 6.816 12.4639 6.6368 12.2847C6.4576 12.1055 6.368 11.8837 6.368 11.6191C6.368 11.3546 6.4576 11.1327 6.6368 10.9535C6.816 10.7743 7.03787 10.6847 7.3024 10.6847C7.5584 10.6847 7.776 10.7743 7.9552 10.9535C8.1344 11.1327 8.224 11.3546 8.224 11.6191C8.224 11.8837 8.1344 12.1055 7.9552 12.2847C7.776 12.4639 7.5584 12.5535 7.3024 12.5535Z" fill="white"/>
</svg>
