<svg width="12" height="13" viewBox="0 0 12 13" fill="none" xmlns="http://www.w3.org/2000/svg">
<path d="M8.21667 9.35C8.09444 9.20556 8.03333 9.04156 8.03333 8.858C8.03333 8.67489 8.09444 8.52222 8.21667 8.4L9.45 7.16667H4.66667C4.47778 7.16667 4.31956 7.10267 4.192 6.97467C4.064 6.84711 4 6.68889 4 6.5C4 6.31111 4.064 6.15267 4.192 6.02467C4.31956 5.89711 4.47778 5.83333 4.66667 5.83333H9.45L8.21667 4.6C8.08333 4.46667 8.01667 4.30844 8.01667 4.12533C8.01667 3.94178 8.08333 3.78333 8.21667 3.65C8.33889 3.51667 8.49178 3.45 8.67533 3.45C8.85845 3.45 9.01111 3.51111 9.13333 3.63333L11.5333 6.03333C11.6 6.1 11.6473 6.17222 11.6753 6.25C11.7029 6.32778 11.7167 6.41111 11.7167 6.5C11.7167 6.58889 11.7029 6.67222 11.6753 6.75C11.6473 6.82778 11.6 6.9 11.5333 6.96667L9.13333 9.36667C8.98889 9.51111 8.83067 9.57489 8.65867 9.558C8.48622 9.54156 8.33889 9.47222 8.21667 9.35ZM1.33333 12.5C0.966667 12.5 0.652667 12.3696 0.391333 12.1087C0.130444 11.8473 0 11.5333 0 11.1667V1.83333C0 1.46667 0.130444 1.15267 0.391333 0.891333C0.652667 0.630444 0.966667 0.5 1.33333 0.5H5.33333C5.52222 0.5 5.68067 0.563778 5.80867 0.691333C5.93622 0.819333 6 0.977778 6 1.16667C6 1.35556 5.93622 1.51378 5.80867 1.64133C5.68067 1.76933 5.52222 1.83333 5.33333 1.83333H1.33333V11.1667H5.33333C5.52222 11.1667 5.68067 11.2307 5.80867 11.3587C5.93622 11.4862 6 11.6444 6 11.8333C6 12.0222 5.93622 12.1804 5.80867 12.308C5.68067 12.436 5.52222 12.5 5.33333 12.5H1.33333Z" fill="#E26D66"/>
</svg>
