<svg width="135" height="133" viewBox="0 0 135 133" fill="none" xmlns="http://www.w3.org/2000/svg">
<g clip-path="url(#clip0_1001_673)">
<circle cx="67.5" cy="65.5" r="67.5" fill="#EAF3F7" fill-opacity="0.6"/>
<path fill-rule="evenodd" clip-rule="evenodd" d="M63.1493 90.9768C59.4612 84.6104 52.989 84.5584 47.6731 85.9419C48.8948 80.3202 48.5748 73.6641 41.723 70.6807C28.7425 65.0303 17.2487 81.8234 17.2487 81.8234L41.0687 93.6014L52.8184 116.395C52.8184 116.395 70.1718 103.097 63.1493 90.9768Z" fill="#947DAC"/>
<path fill-rule="evenodd" clip-rule="evenodd" d="M68.3906 118.919C70.034 115.026 68.1931 109.731 64.519 106.689C60.8446 103.649 55.7387 102.84 51.6967 104.218C53.4419 99.345 51.7185 93.0305 47.5364 88.9845C43.356 84.9376 36.9841 83.4171 32.1646 85.3146C32.5416 85.165 32.0428 81.7161 31.985 81.2483C31.8078 79.8112 31.4957 78.3659 30.9774 76.9661C29.9015 74.0491 27.9729 71.3625 25.1464 69.8042C19.4008 66.6394 13.7895 69.2817 10.7246 73.671C7.21772 78.6994 8.5667 86.8025 9.95452 92.9506C11.9176 101.638 15.979 111.601 23.3921 117.689C28.2008 121.637 34.159 123.349 39.8729 124.542C45.6832 125.754 51.5413 126.459 57.1695 125.568C61.4988 124.882 66.6418 123.068 68.3906 118.919Z" fill="#A893B9"/>
<path fill-rule="evenodd" clip-rule="evenodd" d="M14.4613 103.424C14.4476 101.972 14.9977 100.131 16.4474 100.019C17.33 99.9504 18.1193 100.631 18.5259 101.418C18.933 102.203 19.06 103.098 19.3171 103.945C19.4824 104.487 19.7553 105.067 20.2861 105.269C20.7948 105.46 21.3531 105.237 21.87 105.068C23.6679 104.483 26.1489 104.92 26.6566 106.742C26.9516 107.806 26.4671 109.06 27.0652 109.991C28.1401 111.664 31.2315 110.371 32.4934 111.908C33.1467 112.705 32.9526 113.909 32.4842 114.827C32.3108 115.166 32.1007 115.51 32.1102 115.892C32.1341 116.776 33.2462 117.199 33.6326 117.996C34.0612 118.873 33.4687 121.797 32.5865 122.217C31.598 122.69 23.4252 120.291 20.0228 116.765C16.6208 113.237 14.4842 105.974 14.4613 103.424Z" fill="#708D6F"/>
<circle cx="118" cy="27" r="62" fill="#F9BC20" fill-opacity="0.1"/>
<circle cx="118" cy="27" r="51" fill="#F9BC20" fill-opacity="0.2"/>
<circle cx="118" cy="27" r="40" fill="#F9BC20"/>
</g>
<defs>
<clipPath id="clip0_1001_673">
<rect width="135" height="133" rx="66.5" fill="white"/>
</clipPath>
</defs>
</svg>
