<svg width="16" height="16" viewBox="0 0 16 16" fill="none" xmlns="http://www.w3.org/2000/svg">
<path d="M7.99665 2.66663C6.99883 2.66526 6.02063 2.94385 5.17325 3.47071C4.32586 3.99758 3.64328 4.7516 3.20307 5.64707C2.76287 6.54255 2.5827 7.54355 2.68305 8.53632C2.7834 9.52908 3.16023 10.4738 3.77073 11.2631C4.38123 12.0523 5.2009 12.6545 6.13658 13.0011C7.07226 13.3478 8.08642 13.425 9.06378 13.2239C10.0411 13.0229 10.9425 12.5518 11.6654 11.864C12.3884 11.1762 12.9039 10.2994 13.1533 9.3333H11.766C11.5215 10.0248 11.0916 10.6357 10.5234 11.0993C9.95509 11.563 9.27029 11.8614 8.54382 11.9621C7.81735 12.0628 7.07719 11.9618 6.40425 11.6702C5.73131 11.3785 5.1515 10.9075 4.72821 10.3086C4.30492 9.70966 4.05444 9.00589 4.00416 8.2742C3.95388 7.54252 4.10573 6.81109 4.44311 6.15989C4.78049 5.50869 5.29042 4.96278 5.91714 4.58185C6.54385 4.20091 7.26324 3.99962 7.99665 3.99996C8.52124 4.00073 9.0404 4.10607 9.5238 4.30982C10.0072 4.51358 10.4451 4.81165 10.812 5.18663L8.66665 7.3333H13.3333V2.66663L11.766 4.2333C11.2721 3.73642 10.6848 3.34218 10.0379 3.0733C9.39096 2.80442 8.69722 2.66621 7.99665 2.66663Z" fill="#A3A7AF"/>
</svg>
