<svg width="254" height="279" viewBox="0 0 254 279" fill="none" xmlns="http://www.w3.org/2000/svg">
<g clip-path="url(#clip0_823_509)">
<path d="M279 256.807C279 268.855 268.855 279 256.807 279C250.466 279 244.759 276.463 240.32 272.025L169.302 194.666C166.766 192.129 166.766 188.325 169.302 185.788L185.789 169.302C188.326 166.765 192.13 166.765 194.666 169.302L272.025 240.955C276.463 244.759 279 251.1 279 256.807Z" fill="#1C8C71"/>
<path d="M171.17 183.726L183.724 171.173L164.893 152.341L152.339 164.895L171.17 183.726Z" fill="#97A7B5"/>
<path opacity="0.4" d="M95.1134 171.204C137.137 171.204 171.204 137.137 171.204 95.1134C171.204 53.0896 137.137 19.0227 95.1134 19.0227C53.0897 19.0227 19.0227 53.0896 19.0227 95.1134C19.0227 137.137 53.0897 171.204 95.1134 171.204Z" fill="#EFF3FB"/>
<g clip-path="url(#clip1_823_509)">
<path d="M90.7427 29.3123C90.1256 29.3123 89.5122 29.3336 88.9046 29.3743L69.7693 118.302C70.8702 117.662 117.824 90.0927 117.83 56.4036C117.83 41.4437 105.703 29.3123 90.7427 29.3123Z" fill="#C05953"/>
<path d="M88.9047 29.3743C100.738 30.3185 110.091 42.0609 110.091 56.4036C110.085 90.0578 70.7697 117.606 69.7694 118.302C69.7558 118.31 69.75 118.314 69.75 118.314C69.75 118.314 21.6699 90.4913 21.6699 56.3998C21.6699 41.4398 33.7974 29.3123 48.7572 29.3123C57.224 29.3123 64.7833 33.1974 69.75 39.2824C74.3548 33.6405 81.1867 29.891 88.9047 29.3743Z" fill="#E26D66"/>
</g>
<path d="M95.1134 0C42.4843 0 0 42.4843 0 95.1134C0 147.743 42.4843 190.227 95.1134 190.227C147.743 190.227 190.227 147.743 190.227 95.1134C190.227 42.4843 147.743 0 95.1134 0ZM95.1134 171.205C53.2634 171.205 19.0227 136.964 19.0227 95.1139C19.0227 53.2639 53.2634 19.0227 95.1134 19.0227C136.963 19.0227 171.204 53.2634 171.204 95.1134C171.204 136.963 136.963 171.205 95.1134 171.205Z" fill="#ACBECC"/>
</g>
<defs>
<clipPath id="clip0_823_509">
<rect width="279" height="279" fill="white"/>
</clipPath>
<clipPath id="clip1_823_509">
<rect width="96.1602" height="96.1602" fill="white" transform="translate(21.6699 25.733)"/>
</clipPath>
</defs>
</svg>
