<svg width="70" height="70" viewBox="0 0 70 70" fill="none" xmlns="http://www.w3.org/2000/svg">
<ellipse cx="35" cy="63.4375" rx="32.8125" ry="6.5625" fill="#EAF3F7"/>
<path d="M58.0153 35.3103C58.0153 25.8107 57.2837 17.1891 56.7896 12.4496L57.8908 9.10003C58.2326 8.06038 57.2463 7.07409 56.2066 7.41586L53.5724 8.28185C49.9941 7.88653 43.2406 7.29169 35 7.29169C26.758 7.29169 20.0036 7.88674 16.4258 8.28206L13.7909 7.41586C12.7513 7.07409 11.765 8.06038 12.1068 9.10003L13.2098 12.4554C12.7157 17.1962 11.9847 25.8146 11.9847 35.3103C11.9847 44.806 12.7157 53.4244 13.2098 58.1652L12.1068 61.5206C11.765 62.5602 12.7513 63.5465 13.7909 63.2048L16.4258 62.3386C20.0036 62.7339 26.758 63.3289 35 63.3289C43.2406 63.3289 49.9941 62.7341 53.5724 62.3388L56.2066 63.2048C57.2463 63.5465 58.2326 62.5602 57.8908 61.5206L56.7896 58.171C57.2837 53.4315 58.0153 44.8099 58.0153 35.3103Z" fill="#CFDADD"/>
<path fill-rule="evenodd" clip-rule="evenodd" d="M53.7877 12.4496C54.2817 17.1891 55.0133 25.8107 55.0133 35.3103C55.0133 44.8099 54.2817 53.4315 53.7877 58.171L54.8888 61.5206C55.033 61.9591 54.9408 62.3882 54.708 62.7121L53.5724 62.3388C49.9941 62.7341 43.2406 63.3289 35 63.3289C26.758 63.3289 20.0036 62.7339 16.4258 62.3386L13.7909 63.2048C12.7513 63.5465 11.765 62.5602 12.1068 61.5206L13.2098 58.1652C12.7157 53.4244 11.9847 44.806 11.9847 35.3103C11.9847 25.8146 12.7157 17.1962 13.2098 12.4554L12.1068 9.10003C11.765 8.06038 12.7513 7.07409 13.7909 7.41586L16.4258 8.28206C20.0036 7.88674 26.758 7.29169 35 7.29169C43.2406 7.29169 49.9941 7.88653 53.5724 8.28185L54.708 7.90851C54.9408 8.2324 55.033 8.66147 54.8888 9.10003L53.7877 12.4496Z" fill="#DBE5E9"/>
<circle cx="35" cy="35.3103" r="15.3435" fill="#E6F0F3"/>
<path d="M37.4489 26.4917C37.6709 27.1512 38.0042 28.362 39.7561 30.3262C39.7748 30.3471 40.4598 31.0294 40.5405 31.1154C41.7906 32.4452 42.5549 34.2259 42.5549 36.1826C42.5549 37.1703 42.3602 38.1132 42.0065 38.9758C41.6027 40.0855 40.5269 40.8791 39.2631 40.8791C39.0524 40.8791 38.8468 40.857 38.6488 40.8151C36.5897 40.451 35.1361 38.7458 34.3064 37.2099C34.1007 36.829 33.5442 36.8935 33.5468 37.3263C33.558 39.2461 33.8522 41.0552 35.0394 43.1252C35.1995 43.4045 35.0157 43.6145 34.7274 43.6145C30.5549 43.6145 27.4452 40.2992 27.4452 36.1826C27.4452 35.9497 27.456 35.7193 27.4772 35.4918C27.884 30.4545 32.1114 26.4795 37.2995 26.3881C37.3668 26.3865 37.4274 26.4279 37.4489 26.4917Z" fill="#40B08F"/>
</svg>
