<svg width="156" height="156" viewBox="0 0 156 156" fill="none" xmlns="http://www.w3.org/2000/svg">
<circle cx="78" cy="78" r="78" fill="#E4E7ED"/>
<path d="M50.3465 81.3261C42.1222 49.2365 56.604 37.7315 65.3841 35.4646C74.1642 33.1977 78.4688 33.2066 86.6668 41.1768C94.8648 49.1471 93.8814 63.1821 96.5282 68.9681C99.1749 74.7541 105.814 71.9189 112.905 86.1475C119.997 100.376 112.836 109.843 100.923 115.803C89.0093 121.763 60.627 121.438 50.3465 81.3261Z" stroke="#515F68" stroke-opacity="0.1" stroke-width="9"/>
<path d="M50.3465 81.3261C42.1222 49.2365 56.604 37.7315 65.3841 35.4646C74.1642 33.1977 78.4688 33.2066 86.6668 41.1768C94.8648 49.1471 93.8814 63.1821 96.5282 68.9681C99.1749 74.7541 105.814 71.9189 112.905 86.1475C119.997 100.376 112.836 109.843 100.923 115.803C89.0093 121.763 60.627 121.438 50.3465 81.3261Z" fill="#715F52"/>
<path fill-rule="evenodd" clip-rule="evenodd" d="M91.0921 118.462C94.9165 118.111 98.3142 117.108 100.923 115.803C112.836 109.843 119.997 100.376 112.905 86.1475C108.602 77.5134 104.466 75.1625 101.287 73.3559C99.2268 72.1852 97.5689 71.2431 96.5282 68.9681C95.6544 67.0578 95.1762 64.2484 94.6327 61.055C93.53 54.5758 92.1582 46.5157 86.6668 41.1768C78.4688 33.2066 74.1642 33.1977 65.3841 35.4646C65.2186 35.5073 65.051 35.5533 64.8816 35.6027C70.0639 35.0922 73.9958 36.6347 80.0533 42.524C85.5447 47.8628 86.9165 55.9229 88.0192 62.4021C88.5627 65.5955 89.0408 68.405 89.9147 70.3152C90.9553 72.5902 92.6132 73.5324 94.6731 74.703C97.8522 76.5097 101.989 78.8605 106.292 87.4946C113.383 101.723 106.222 111.19 94.309 117.15C93.3395 117.635 92.261 118.078 91.0921 118.462Z" fill="#55463B"/>
<path d="M100.923 115.803C99.1266 116.701 96.9565 117.457 94.5305 117.955C94.0708 118.049 93.8893 117.36 94.309 117.15C106.222 111.19 113.383 101.723 106.292 87.4946C105.142 85.1873 104.004 83.3287 102.893 81.8093C101.264 79.582 98.1251 79.6817 95.5051 80.547C89.4741 82.5386 83.111 79.6892 81.2926 74.1827C80.149 70.7199 81.0751 67.0309 83.4198 64.2743C85.5049 61.823 87.4631 58.7995 86.7119 55.6702C85.5739 50.9297 83.7441 46.1122 80.0533 42.524C74.1998 36.8331 70.3312 35.201 65.4011 35.5582C65.3424 35.5625 65.3271 35.4793 65.3841 35.4646C74.1642 33.1977 78.4688 33.2066 86.6668 41.1768C92.1582 46.5157 93.53 54.5758 94.6327 61.0549C95.1762 64.2484 95.6544 67.0578 96.5282 68.9681C97.5689 71.2431 99.2268 72.1852 101.287 73.3559C101.734 73.6099 102.2 73.8747 102.682 74.1663C105.633 75.948 109.208 78.7275 112.905 86.1475C119.997 100.376 112.836 109.843 100.923 115.803Z" fill="#55463B"/>
</svg>
