<svg width="122" height="14" viewBox="0 0 122 14" fill="none" xmlns="http://www.w3.org/2000/svg">
<line y1="7" x2="27" y2="7" stroke="#C7CCD5" stroke-width="2" stroke-dasharray="3 3"/>
<path d="M44.11 2.73V11.79H44.93V2.73H44.11ZM42.16 6.36V7.05H44.35V6.36H42.16ZM39.8 4.89V5.66C39.8 7.22 38.84 8.76 37.51 9.4L37.98 10.04C39.41 9.33 40.46 7.57 40.46 5.66V4.89H39.8ZM39.96 4.89V5.66C39.96 7.51 41.02 9.2 42.47 9.87L42.93 9.23C41.6 8.62 40.61 7.15 40.61 5.66V4.89H39.96ZM37.76 4.31V4.98H42.62V4.31H37.76ZM39.79 2.9V4.68H40.62V2.9H39.79ZM50.7792 2.94C48.8192 2.94 47.5992 3.58 47.5992 4.65C47.5992 5.72 48.8192 6.35 50.7792 6.35C52.7292 6.35 53.9592 5.72 53.9592 4.65C53.9592 3.58 52.7292 2.94 50.7792 2.94ZM50.7792 3.6C52.2092 3.6 53.1092 3.98 53.1092 4.65C53.1092 5.31 52.2092 5.7 50.7792 5.7C49.3392 5.7 48.4492 5.31 48.4492 4.65C48.4492 3.98 49.3392 3.6 50.7792 3.6ZM47.6892 8.68V11.66H53.8592V8.68H47.6892ZM53.0492 9.35V10.99H48.5092V9.35H53.0492ZM46.6892 7.13V7.8H54.8592V7.13H46.6892Z" fill="#333537"/>
<line x1="66" y1="7" x2="93" y2="7" stroke="#4E5054" stroke-width="4"/>
<path d="M105.89 4.03V5.5C105.89 7.06 104.8 8.76 103.49 9.38L103.97 10.04C105.41 9.33 106.56 7.41 106.56 5.5V4.03H105.89ZM106.05 4.03V5.5C106.05 7.38 107.21 9.14 108.67 9.82L109.14 9.16C107.81 8.59 106.72 7.03 106.72 5.5V4.03H106.05ZM103.79 3.66V4.36H108.84V3.66H103.79ZM110.06 2.74V11.78H110.89V2.74H110.06ZM113.739 3.21V3.89H119.559V3.21H113.739ZM112.699 6.54V7.22H120.889V6.54H112.699ZM119.019 3.21V3.88C119.019 4.63 119.019 5.5 118.719 6.74L119.529 6.78C119.829 5.53 119.829 4.65 119.829 3.88V3.21H119.019ZM113.699 8.45V11.66H119.859V8.45H113.699ZM119.049 9.11V10.99H114.509V9.11H119.049Z" fill="#333537"/>
</svg>
