<svg width="311" height="160" viewBox="0 0 311 160" fill="none" xmlns="http://www.w3.org/2000/svg">
<g clip-path="url(#clip0_1001_687)">
<path d="M26 159.5C26 142.494 29.3496 125.654 35.8576 109.942C42.3656 94.2308 51.9045 79.9548 63.9297 67.9297L155.5 159.5L26 159.5Z" fill="#E26D66"/>
<path d="M63.9297 67.9297C88.2156 43.6438 121.154 30.0001 155.5 30L155.5 159.5L63.9297 67.9297Z" fill="#ECA443"/>
<path d="M155.5 30C189.845 30 222.784 43.6436 247.07 67.9294L155.5 159.5V30Z" fill="#40B08F"/>
<path d="M247.07 67.9297C271.356 92.2155 285 125.154 285 159.5L155.5 159.5L247.07 67.9297Z" fill="#3D81BB"/>
<circle cx="155.5" cy="159.5" r="84.5" fill="#F1F3F7"/>
<line x1="156.5" y1="30" x2="156.5" y2="160" stroke="#F1F3F6" stroke-width="2"/>
<line x1="64.4271" y1="67.7231" x2="156.351" y2="159.647" stroke="#F1F3F6" stroke-width="2"/>
<line y1="-1" x2="130" y2="-1" transform="matrix(-0.707107 0.707107 0.707107 0.707107 248.3 68.4302)" stroke="#F1F3F6" stroke-width="2"/>
</g>
<defs>
<clipPath id="clip0_1001_687">
<rect width="311" height="160" rx="8" fill="white"/>
</clipPath>
</defs>
</svg>
